<?xml version="1.0" encoding="UTF-8"?>
<svg xmlns="http://www.w3.org/2000/svg" viewBox="0 0 469.54 59.31">
  <defs>
    <style>
      .cls-1 {
        mix-blend-mode: multiply;
      }

      .cls-1, .cls-2 {
        fill: #5b4884;
        stroke-width: 0px;
      }

      .cls-3 {
        isolation: isolate;
      }
    </style>
  </defs>
  <g class="cls-3">
    <g id="_レイヤー_2" data-name="レイヤー 2">
      <g id="_レイヤー_1-2" data-name="レイヤー 1">
        <g>
          <g>
            <path class="cls-2" d="m105.17,15.28c-12.16,0-22.01,9.85-22.01,22.01s9.85,22.01,22.01,22.01c4.29,0,8.3-1.23,11.69-3.36v3.27h10.33v-21.92c0-12.16-9.85-22.01-22.01-22.01Zm0,33.7c-5.54,0-10.16-3.86-11.37-9.03-.07-.31-.13-.62-.18-.94-.02-.13-.04-.25-.06-.38-.05-.44-.08-.89-.08-1.34,0-.48.04-.95.09-1.42.02-.13.04-.25.06-.37.05-.35.12-.7.21-1.04,1.27-5.08,5.85-8.85,11.32-8.85,6.45,0,11.69,5.23,11.69,11.69s-5.23,11.69-11.69,11.69Z"/>
            <path class="cls-1" d="m184.9,37.32h0c0-.58-.03-1.14-.08-1.71-.01-.13-.02-.26-.03-.39-.05-.53-.12-1.05-.21-1.57-.02-.13-.05-.26-.07-.4-.1-.54-.22-1.07-.36-1.6-.01-.05-.03-.11-.05-.16-.19-.7-.42-1.39-.68-2.06-.02-.05-.04-.1-.05-.14,0-.02-.02-.04-.02-.06-3.23-8.14-11.17-13.9-20.46-13.9-8.74,0-16.29,5.1-19.84,12.48-.04.09-.08.18-.12.26-.11.23-.22.46-.32.7-1.12,2.64-1.74,5.54-1.74,8.59h0v21.91h0s0,0,0,0h10.33v-21.91s0,0,0,0c0-.6.05-1.2.13-1.78,0-.02,0-.04.01-.06.06-.37.13-.73.22-1.08,0-.01,0-.02,0-.03.05-.18.1-.35.15-.52,0-.02.01-.03.02-.05.05-.17.11-.33.17-.49,0,0,0-.01,0-.02.06-.17.13-.35.2-.52,0-.02.02-.04.03-.06.14-.33.3-.65.47-.97.01-.02.03-.05.04-.07.08-.14.16-.28.24-.42,0-.01.02-.03.02-.04.09-.15.18-.29.28-.44.03-.05.07-.1.1-.14.07-.11.15-.21.22-.31.07-.09.14-.17.21-.26.05-.06.09-.12.14-.18.05-.06.1-.12.15-.18.07-.08.14-.17.21-.25.02-.02.04-.04.06-.06.23-.25.48-.5.73-.73.06-.05.12-.1.17-.15.22-.2.45-.39.69-.56.07-.05.14-.1.21-.15.08-.06.16-.12.24-.17.13-.09.27-.18.41-.26.02-.01.05-.03.07-.04.47-.29.96-.54,1.48-.76.01,0,.02-.01.04-.02.13-.06.26-.11.4-.16.05-.02.09-.04.14-.05.51-.19,1.04-.34,1.58-.45.03,0,.06-.01.09-.02.55-.11,1.12-.19,1.7-.22.22-.01.43-.02.65-.02,5.4,0,9.94,3.67,11.28,8.64.03.1.05.2.08.31.01.05.02.1.04.16.03.14.06.29.09.43.02.09.03.17.05.26.01.08.02.16.04.24.02.11.03.22.04.34,0,.05.01.11.02.16.02.16.03.32.04.48,0,.05,0,.1,0,.15,0,.17.01.31.01.48v.05h0v21.92h10.33v-21.97h0s0-.01,0-.01Z"/>
            <path class="cls-2" d="m33.7,15.27h-.04s0,0-.01,0h0c-1.69,0-3.33.2-4.91.56-.06.01-.11.03-.16.04-.09.02-.18.04-.27.07-.11.03-.22.06-.32.08-.03,0-.05.01-.08.02-.6.16-1.18.35-1.76.56-.17.06-.34.13-.5.19-3.83,1.51-7.14,4.07-9.57,7.31-.32.42-.62.86-.91,1.31-.29.45-.56.9-.81,1.37-.85,1.56-1.51,3.23-1.96,4.99-.09.35-.17.71-.25,1.06-.04.18-.07.36-.1.54-.06.36-.12.73-.17,1.09-.12.92-.18,1.85-.18,2.8,0,0,0,0,0,0h0v.05c0,.18,0,.31-.01.48,0,.05,0,.1,0,.15,0,.16-.02.32-.04.48,0,.05-.01.11-.02.16-.01.11-.03.23-.04.34-.01.08-.02.16-.04.24-.01.09-.03.17-.05.26-.03.15-.06.29-.09.43-.01.05-.02.1-.04.16-.02.1-.05.21-.08.31-1.04,3.88-4.03,6.95-7.86,8.12-.39.12-.77.22-1.13.29-.03,0-.06.01-.09.02-.17.03-.34.06-.5.08-.17.03-.34.05-.52.07-.11.01-.21.02-.31.03-.28.02-.57.04-.86.04,0,0-.03,0-.03,0v10.33s0,0,0,0c0,0,0,0,0,0,.47,0,.95-.01,1.41-.04.06,0,.12-.01.18-.02.03,0,.07,0,.1,0,.37-.03.74-.06,1.11-.11.37-.05.73-.1,1.09-.17.18-.03.36-.07.54-.1.36-.07.71-.16,1.06-.25,1.76-.45,3.43-1.12,4.99-1.96.47-.25.93-.52,1.37-.81.45-.29.88-.59,1.31-.9,2.42-1.81,4.45-4.1,5.96-6.74,0,0,0,0,0-.01.07-.13.14-.26.21-.39.18-.32.35-.64.51-.96,0,0,0,0,0,0,0,0,0,0,0,0,.23-.48.45-.97.65-1.47.07-.17.13-.33.19-.5.21-.58.4-1.16.56-1.76,0-.03.01-.05.02-.08.03-.11.06-.22.08-.32.02-.09.05-.18.07-.27.01-.05.03-.11.04-.16.36-1.58.56-3.22.56-4.91h0s0,0,0-.01v-.06h0s0,0,0,0c0-5.4,3.67-9.94,8.64-11.28.1-.03.2-.05.31-.08.05-.01.1-.02.16-.04.14-.03.29-.06.43-.09.09-.02.17-.03.26-.05.08-.01.16-.02.24-.04.11-.02.22-.03.34-.04.05,0,.11-.01.16-.02.16-.02.32-.03.48-.04.05,0,.1,0,.15,0,.17,0,.31-.01.48-.01h.05s0,0,0,0v-10.33h0Z"/>
            <path class="cls-2" d="m69.46,59.3h-.05v-10.32s0,0,0,0h0s.04,0,.04,0c0,0-.08,0-.19,0-.21,0-.43-.01-.64-.03-.1,0-.21-.01-.31-.02-.04,0-.09,0-.13-.01-.13-.01-.26-.03-.4-.05-.07,0-.14-.02-.21-.03-.09-.01-.17-.03-.26-.05-.15-.03-.29-.06-.43-.09-.05-.01-.1-.02-.16-.04-.1-.02-.21-.05-.31-.08,0,0,0,0,0,0,0,0-.01,0-.02,0-4.02-1.07-7.19-4.23-8.27-8.25h0c-.03-.1-.05-.2-.08-.31-.01-.05-.02-.1-.04-.16-.03-.14-.06-.29-.09-.43-.02-.09-.03-.17-.05-.26-.01-.08-.02-.16-.04-.24-.02-.11-.03-.22-.04-.34,0-.05-.01-.11-.02-.16-.02-.16-.03-.32-.04-.48,0-.05,0-.1,0-.15,0-.17-.01-.31-.01-.48h0v-9.52h11.69v-10.33h-11.69V0h-10.33v37.29h0v.05h0s0,.01,0,.01h0c0,1.69.2,3.33.56,4.91.01.06.03.11.04.16.02.09.04.18.07.27.03.11.06.22.08.32,0,.03.01.05.02.08.16.6.35,1.18.56,1.76.06.17.13.34.19.5.57,1.44,1.28,2.8,2.12,4.07,1.4,2.12,3.16,3.98,5.19,5.5.42.32.86.62,1.31.91.45.29.9.56,1.37.81.78.42,1.59.8,2.42,1.13.83.33,1.69.61,2.57.83.07.02.13.03.2.05.29.07.57.14.87.2.18.04.36.07.54.1.36.06.73.12,1.09.17.14.02.28.02.41.04.17.02.33.03.5.05.23.02.45.04.68.05.34.02.68.03,1.02.03.07,0,.13,0,.19,0h0s.03,0,.05,0h0Z"/>
          </g>
          <g>
            <path class="cls-2" d="m423.12,48.87h0s-.02,0-.03,0h-.02c-.18,0-.31,0-.48-.01-.05,0-.1,0-.15,0-.16,0-.32-.02-.48-.04-.05,0-.11-.01-.16-.02-.11-.01-.23-.03-.34-.04-.08-.01-.16-.02-.24-.04-.09-.01-.17-.03-.26-.05-.15-.03-.29-.06-.43-.09-.05-.01-.1-.02-.16-.04-.1-.02-.21-.05-.31-.08-4.98-1.34-8.64-5.88-8.64-11.28,0-.22,0-.43.02-.65.03-.58.1-1.15.22-1.7,0-.03.01-.06.02-.09.11-.54.27-1.07.45-1.58.02-.05.04-.09.05-.14.05-.13.1-.27.16-.4,0-.01.01-.02.02-.04.22-.51.47-1,.76-1.48.01-.02.03-.05.04-.07.08-.14.17-.27.26-.41.06-.08.12-.16.17-.24.05-.07.1-.14.15-.21.18-.24.37-.47.56-.69.05-.06.1-.12.15-.17.23-.25.48-.5.73-.73.02-.02.04-.04.06-.06.08-.07.16-.14.25-.21.06-.05.12-.1.18-.15.06-.05.12-.09.18-.14.09-.07.17-.14.26-.21.1-.08.21-.15.31-.22.05-.03.09-.07.14-.1.14-.1.29-.19.44-.28.01,0,.03-.02.04-.02.14-.08.28-.16.42-.24.02-.01.05-.03.07-.04.31-.17.64-.33.97-.47.02,0,.04-.02.06-.03.17-.07.34-.14.52-.2,0,0,.01,0,.02,0,.16-.06.33-.11.49-.17.02,0,.03-.01.05-.02.17-.05.35-.1.52-.15.01,0,.02,0,.03,0,.35-.09.71-.16,1.08-.22.02,0,.04,0,.06-.01.58-.09,1.17-.13,1.78-.13,0,0,0,0,0,0h0v-6.66h0v-3.67h-.04c-.17,0-.33,0-.5,0-.02,0-.03,0-.05,0-11.82.3-21.32,9.92-21.43,21.79V.1h-10.34v59.1h10.34v-21.78c0,.25.02.5.03.76,0,.18.01.36.02.54.02.36.06.71.1,1.07,0,.07.01.14.02.21.02.18.05.35.08.53.05.34.1.67.17,1,0,.03.01.06.02.1.07.36.16.71.25,1.06,0,.01,0,.02,0,.03.1.4.22.79.35,1.17.03.09.05.18.08.27.08.25.16.5.25.75,1.57,4.4,4.3,7.59,7.35,9.84.15.11.31.23.47.33.37.26.74.51,1.12.75.16.1.33.2.5.29.37.22.74.42,1.12.62.18.09.36.19.55.28.48.23.96.45,1.46.64.05.02.11.04.16.06.06.02.11.04.17.06.06.02.11.04.17.06.58.21,1.16.4,1.76.56.03,0,.05.01.08.02.11.03.22.06.32.08.06.02.12.03.19.05.03,0,.06.01.09.02.06.01.11.03.17.04.05.01.09.02.14.03,1.82.44,3.47.61,4.74.53.01,0,.02,0,.04,0h0s.01,0,.01,0h.05v-10.33h0Z"/>
            <path class="cls-2" d="m321.3,15.19c-1.9,0-3.74.24-5.5.69-.7.18-1.39.4-2.07.64-1.69.62-3.27,1.43-4.74,2.42-1.17.79-2.26,1.69-3.26,2.69-.5.5-.97,1.02-1.42,1.56-.9,1.09-1.69,2.26-2.37,3.51-.51.94-.95,1.91-1.32,2.92-.25.67-.46,1.36-.64,2.07-.45,1.76-.69,3.6-.69,5.5,0,12.16,9.85,22.01,22.01,22.01s22.01-9.85,22.01-22.01-9.85-22.01-22.01-22.01Zm10.27,27.58c-.9,1.66-2.19,3.07-3.74,4.12-.31.21-.63.41-.96.59-.66.36-1.36.66-2.1.89-.37.11-.74.21-1.12.29-.76.16-1.55.24-2.35.24-5.54,0-10.16-3.86-11.37-9.03-.07-.31-.13-.62-.18-.94-.02-.13-.04-.25-.06-.37-.05-.44-.08-.89-.08-1.34,0-.48.04-.95.09-1.42.02-.13.04-.25.06-.37.05-.35.12-.7.21-1.05,1.27-5.08,5.85-8.85,11.32-8.85.81,0,1.59.08,2.35.24.38.08.75.17,1.12.29.73.23,1.43.53,2.1.89.33.18.65.38.96.59,1.55,1.05,2.84,2.46,3.74,4.12s1.41,3.55,1.41,5.57-.51,3.91-1.41,5.57Z"/>
            <path class="cls-1" d="m378.04,15.25h-.04s0,0-.01,0h0c-1.69,0-3.33.2-4.91.56-.06.01-.11.03-.17.04-.09.02-.18.04-.27.07-.11.03-.22.06-.32.08-.03,0-.05.01-.08.02-.6.16-1.18.35-1.76.56-.17.06-.34.13-.5.19-3.83,1.51-7.14,4.07-9.57,7.31-.32.42-.62.86-.91,1.31-.29.45-.56.9-.81,1.37-.85,1.56-1.51,3.23-1.96,4.99-.09.35-.17.71-.25,1.06-.04.18-.07.36-.1.54-.06.36-.12.73-.17,1.09-.11.9-.17,1.82-.18,2.76h0v21.99h10.33v-21.94h0s0,0,0,0h0c0-.68.06-1.34.17-1.98,0-.06.03-.11.04-.17.05-.26.1-.53.17-.78.01-.05.03-.09.04-.14.33-1.19.83-2.32,1.49-3.33.05-.08.11-.16.17-.23.23-.33.47-.65.73-.95.28-.33.57-.64.88-.93.01,0,.02-.02.03-.03.14-.13.29-.25.44-.38.09-.08.18-.16.27-.24.61-.48,1.27-.9,1.97-1.25.3-.15.61-.29.92-.42.43-.17.87-.33,1.32-.45.1-.03.2-.05.31-.08.05-.01.1-.02.16-.04.14-.03.29-.06.43-.09.09-.02.17-.03.26-.05.08-.01.16-.02.24-.04.11-.02.22-.03.34-.04.05,0,.11-.01.16-.02.16-.02.32-.03.48-.04.05,0,.1,0,.15,0,.17,0,.31-.01.48-.01h.05,0s0,0,0,0h0v-10.33h0Z"/>
            <path class="cls-2" d="m469.53,15.18h-.04s0,0-.01,0h0c-1.69,0-3.33.2-4.91.56-.06.01-.11.03-.16.04-.09.02-.18.04-.27.07-.11.03-.22.06-.32.08-.03,0-.05.01-.08.02-.6.16-1.18.35-1.76.56-.17.06-.34.13-.5.19-3.83,1.51-7.14,4.07-9.57,7.31-.32.42-.62.86-.91,1.31-.29.45-.56.9-.81,1.37-.85,1.56-1.51,3.23-1.96,4.99-.09.35-.17.71-.25,1.06-.04.18-.07.36-.1.54-.06.36-.12.73-.17,1.09-.12.92-.18,1.85-.18,2.8,0,0,0,0,0,0h0v.05c0,.18,0,.31-.01.48,0,.05,0,.1,0,.15,0,.16-.02.32-.04.48,0,.05-.01.11-.02.16-.01.11-.03.23-.04.34-.01.08-.02.16-.04.24-.01.09-.03.17-.05.26-.03.15-.06.29-.09.43-.01.05-.02.1-.04.16-.02.1-.05.21-.08.31-1.04,3.88-4.04,6.95-7.86,8.12-.39.12-.78.22-1.13.29-.03,0-.06.01-.09.02-.17.03-.34.06-.5.08-.17.02-.34.05-.51.07-.11.01-.21.02-.31.03-.28.02-.57.04-.86.04,0,0-.03,0-.03,0v10.33h0c.47,0,.95-.02,1.41-.04.06,0,.12-.01.18-.02.03,0,.07,0,.1,0,.37-.03.74-.06,1.11-.11.37-.05.73-.1,1.09-.17.18-.03.36-.07.54-.1.36-.07.71-.16,1.06-.25,1.76-.45,3.43-1.12,4.99-1.96.47-.25.93-.52,1.37-.81.45-.29.88-.59,1.31-.9,2.42-1.81,4.45-4.1,5.96-6.74,0,0,0,0,0-.01.07-.13.14-.26.21-.39.18-.32.35-.64.51-.96,0,0,0,0,0,0,0,0,0,0,0,0,.23-.48.45-.97.65-1.47.07-.17.13-.33.19-.5.21-.58.4-1.16.56-1.76,0-.03.01-.05.02-.08.03-.11.06-.22.08-.32.02-.09.05-.18.07-.27.01-.05.03-.11.04-.16.36-1.58.56-3.22.56-4.91h0s0,0,0-.01v-.06h0s0,0,0,0c0-5.4,3.67-9.94,8.64-11.28.1-.03.2-.05.31-.08.05-.01.1-.02.16-.04.14-.03.29-.06.43-.09.09-.02.17-.03.26-.05.08-.01.16-.02.24-.04.11-.02.22-.03.34-.04.05,0,.11-.01.16-.02.16-.02.32-.03.48-.04.05,0,.1,0,.15,0,.17,0,.31-.01.48-.01h.05s0,0,0,0v-10.33h0Z"/>
            <path class="cls-1" d="m282.5,15.26h-5.28v21.92h0s0,0,0,0v.04c0,.18,0,.31-.01.48,0,.05,0,.1,0,.15,0,.16-.02.32-.03.48,0,.05-.01.11-.02.16-.01.11-.02.23-.04.34-.01.08-.02.16-.03.24-.01.09-.03.17-.04.26-.02.15-.05.29-.08.43-.01.05-.02.1-.03.16-.02.1-.05.2-.07.31-1.21,4.98-5.33,8.64-10.22,8.64-.2,0-.39,0-.59-.02-.53-.03-1.04-.1-1.54-.22-.03,0-.05-.01-.08-.02-.49-.11-.97-.27-1.43-.45-.04-.02-.08-.04-.12-.05-.12-.05-.24-.1-.36-.16-.01,0-.02-.01-.03-.02-.46-.22-.91-.47-1.34-.76-.02-.01-.04-.03-.06-.04-.12-.08-.25-.17-.37-.26-.08-.06-.15-.12-.22-.17-.06-.05-.13-.1-.19-.15-.22-.18-.42-.37-.63-.56-.05-.05-.11-.1-.16-.15-.23-.23-.45-.48-.66-.73-.02-.02-.04-.04-.06-.06-.07-.08-.13-.16-.19-.25-.05-.06-.09-.12-.14-.18-.04-.06-.09-.12-.13-.18-.06-.09-.13-.17-.19-.26-.07-.1-.14-.21-.2-.31-.03-.05-.06-.09-.09-.14-.09-.14-.17-.29-.25-.44,0-.01-.02-.03-.02-.04-.08-.14-.15-.28-.22-.42-.01-.02-.02-.05-.04-.07-.15-.31-.29-.64-.42-.97,0-.02-.02-.04-.02-.06-.07-.17-.13-.34-.18-.52,0,0,0-.01,0-.02-.05-.16-.1-.33-.15-.49,0-.02-.01-.03-.01-.05-.04-.14-.08-.29-.11-.43-.02-.07-.03-.14-.05-.2-.07-.32-.13-.64-.18-.97,0-.06-.02-.11-.02-.17-.03-.23-.05-.46-.07-.7,0-.06,0-.13-.01-.19-.01-.23-.02-.47-.02-.7,0-.02,0-.03,0-.05h0V15.28h0v-.02h-9.35v.02h0v21.91h0v.04h0s0,.09,0,.13c0,.12,0,.23-.01.36,0,.05,0,.1,0,.15,0,.16-.02.32-.03.48,0,.05-.01.11-.02.16-.01.11-.02.23-.04.34-.01.08-.02.16-.03.24-.01.09-.03.17-.04.26-.02.15-.05.29-.08.43-.01.05-.02.1-.03.16-.02.1-.05.21-.07.31h0c-1.21,4.98-5.33,8.64-10.22,8.64-.2,0-.39,0-.59-.02-.53-.03-1.04-.1-1.54-.22-.03,0-.05-.01-.08-.02-.49-.11-.97-.27-1.43-.45-.04-.02-.08-.04-.12-.05-.12-.05-.24-.1-.36-.16-.01,0-.02-.01-.03-.02-.46-.22-.91-.47-1.34-.76-.02-.01-.04-.03-.06-.04-.12-.08-.25-.17-.37-.26-.08-.06-.15-.12-.22-.17-.06-.05-.13-.1-.19-.15-.22-.18-.42-.37-.63-.56-.05-.05-.11-.1-.16-.15-.23-.23-.45-.48-.66-.73-.02-.02-.04-.04-.06-.06-.07-.08-.13-.16-.19-.25-.05-.06-.09-.12-.14-.18-.04-.06-.09-.12-.13-.18-.06-.09-.13-.17-.19-.26-.07-.1-.14-.21-.2-.31-.03-.05-.06-.09-.09-.14-.09-.14-.17-.29-.25-.44,0-.01-.02-.03-.02-.04-.08-.14-.15-.28-.22-.42-.01-.02-.02-.05-.04-.07-.15-.31-.29-.64-.42-.97,0-.02-.02-.04-.02-.06-.07-.17-.13-.34-.18-.52,0,0,0-.01,0-.02-.05-.16-.1-.33-.15-.49,0-.02-.01-.03-.02-.05-.05-.16-.09-.32-.12-.49,0-.04-.02-.08-.03-.12-.08-.34-.14-.68-.19-1.03,0-.04-.01-.08-.02-.12-.03-.24-.06-.49-.08-.74,0-.06,0-.11-.01-.17-.02-.26-.03-.53-.03-.8h0V15.28h0s-5.28,0-5.28,0h-.75s-3.32,0-3.32,0h0v21.91h0v.04h0c0,.16,0,.31.01.47,0,.22,0,.43.02.65.01.27.03.54.06.8,0,.1.01.2.02.31,1.02,11.1,9.51,19.76,19.83,19.76h0c6.12,0,11.6-3.05,15.25-7.85,3.66,4.8,9.13,7.85,15.26,7.85,8.41,0,15.6-5.76,18.53-13.9,0-.02.02-.04.02-.06.02-.05.03-.09.05-.14.23-.67.44-1.36.61-2.06.01-.05.03-.11.04-.16.13-.52.23-1.06.33-1.6.02-.13.04-.26.06-.39.08-.52.14-1.04.19-1.57.01-.13.02-.26.03-.39.04-.56.07-1.13.07-1.71h0V15.28h0s-4.07-.01-4.07-.01Z"/>
          </g>
        </g>
      </g>
    </g>
  </g>
</svg>